<?xml version="1.0" standalone="no"?>
<!DOCTYPE svg PUBLIC "-//W3C//DTD SVG 20010904//EN"
 "http://www.w3.org/TR/2001/REC-SVG-20010904/DTD/svg10.dtd">
<svg version="1.0" xmlns="http://www.w3.org/2000/svg"
 width="348.000000pt" height="151.000000pt" viewBox="0 0 348.000000 151.000000"
 preserveAspectRatio="xMidYMid meet">
<metadata>
Created by potrace 1.16, written by Peter Selinger 2001-2019
</metadata>
<g transform="translate(0.000000,151.000000) scale(0.100000,-0.100000)"
fill="#E50914" stroke="none">
<path d="M215 1496 c-101 -32 -155 -87 -174 -177 -16 -72 -13 -215 4 -282 28
-109 98 -214 161 -245 19 -8 34 -19 34 -23 0 -4 16 -13 35 -19 19 -6 35 -15
35 -20 0 -4 10 -11 23 -14 41 -11 117 -66 137 -99 27 -43 28 -170 3 -207 -32
-48 -78 -64 -138 -49 -57 14 -77 51 -83 151 l-5 79 -121 -3 -121 -3 -3 -49
c-4 -64 12 -166 34 -213 10 -21 34 -55 54 -76 57 -61 174 -80 367 -57 110 12
185 48 226 107 82 115 97 345 32 479 -32 66 -108 143 -182 185 -32 18 -62 37
-68 42 -5 5 -39 25 -74 45 -88 51 -105 76 -109 166 -5 89 11 121 69 136 29 8
46 7 73 -4 38 -16 46 -33 55 -116 l6 -55 118 -3 117 -3 0 65 c0 36 -7 87 -16
113 -43 126 -118 163 -323 162 -72 0 -143 -6 -166 -13z"/>
<path d="M868 853 c-3 -357 -4 -649 -4 -650 1 -1 54 -5 117 -9 l116 -7 6 129
c4 71 7 198 7 283 l0 154 180 -7 180 -6 0 135 0 135 -119 0 c-65 0 -146 3
-180 6 l-61 7 0 145 0 145 190 -7 190 -8 0 101 0 101 -309 0 -308 0 -5 -647z"/>
<path d="M1607 1493 c-4 -3 -7 -303 -7 -665 0 -620 1 -658 18 -658 30 0 474
-29 545 -36 l67 -6 0 110 0 110 -77 6 c-43 3 -131 8 -195 12 l-118 6 0 564 0
564 -113 0 c-63 0 -117 -3 -120 -7z"/>
<path d="M2340 805 c0 -377 1 -685 3 -686 1 0 55 -6 120 -13 l117 -12 0 698 0
698 -120 0 -120 0 0 -685z"/>
<path d="M2710 1482 c0 -5 8 -33 19 -63 10 -30 64 -186 119 -346 l100 -293
-43 -115 c-24 -63 -51 -136 -59 -162 -13 -46 -38 -108 -120 -305 -47 -113 -47
-118 7 -119 23 0 81 -6 129 -13 l87 -12 10 25 c21 56 121 378 122 392 0 8 34
-87 75 -211 41 -123 80 -231 88 -238 8 -9 52 -15 124 -19 l112 -6 0 35 c0 19
-24 100 -54 179 -29 79 -82 227 -116 329 -34 102 -66 193 -71 202 -6 12 2 46
27 115 20 54 57 163 83 243 27 80 67 194 90 254 22 60 41 115 41 122 0 11 -27
14 -128 14 l-128 0 -12 -47 c-7 -27 -21 -70 -32 -98 -10 -27 -34 -101 -53
-163 l-34 -113 -37 128 c-20 70 -49 165 -63 211 l-26 82 -128 0 c-71 0 -129
-4 -129 -8z"/>
</g>
</svg>
